<?xml version="1.0" encoding="UTF-8" standalone="no"?>
<!-- Created with Inkscape (http://www.inkscape.org/) -->

<svg
   xmlns:osb="http://www.openswatchbook.org/uri/2009/osb"
   xmlns:dc="http://purl.org/dc/elements/1.1/"
   xmlns:cc="http://creativecommons.org/ns#"
   xmlns:rdf="http://www.w3.org/1999/02/22-rdf-syntax-ns#"
   xmlns:svg="http://www.w3.org/2000/svg"
   xmlns="http://www.w3.org/2000/svg"
   xmlns:sodipodi="http://sodipodi.sourceforge.net/DTD/sodipodi-0.dtd"
   xmlns:inkscape="http://www.inkscape.org/namespaces/inkscape"
   width="96.448509mm"
   height="70.913109mm"
   viewBox="0 0 341.74668 251.26692"
   id="svg2"
   version="1.1"
   inkscape:version="0.91 r13725"
   sodipodi:docname="boxes.svg">
  <defs
     id="defs4">
    <linearGradient
       id="linearGradient5201"
       osb:paint="solid">
      <stop
         style="stop-color:#000000;stop-opacity:1;"
         offset="0"
         id="stop5203" />
    </linearGradient>
    <linearGradient
       id="linearGradient5193"
       osb:paint="solid">
      <stop
         style="stop-color:#000000;stop-opacity:1;"
         offset="0"
         id="stop5195" />
    </linearGradient>
    <linearGradient
       id="linearGradient5177"
       osb:paint="solid">
      <stop
         style="stop-color:#000000;stop-opacity:1;"
         offset="0"
         id="stop5179" />
    </linearGradient>
  </defs>
  <sodipodi:namedview
     id="base"
     pagecolor="#ffffff"
     bordercolor="#666666"
     borderopacity="1.0"
     inkscape:pageopacity="0.0"
     inkscape:pageshadow="2"
     inkscape:zoom="1.4142136"
     inkscape:cx="241.76569"
     inkscape:cy="100.3959"
     inkscape:document-units="px"
     inkscape:current-layer="layer1"
     showgrid="true"
     inkscape:window-width="1403"
     inkscape:window-height="880"
     inkscape:window-x="419"
     inkscape:window-y="35"
     inkscape:window-maximized="0"
     fit-margin-top="1"
     fit-margin-left="1"
     fit-margin-bottom="1"
     fit-margin-right="1"
     borderlayer="true"
     units="mm"
     showborder="true">
    <inkscape:grid
       type="xygrid"
       id="grid3336"
       originx="-546.95329"
       originy="-51.456716" />
  </sodipodi:namedview>
  <metadata
     id="metadata7">
    <rdf:RDF>
      <cc:Work
         rdf:about="">
        <dc:format>image/svg+xml</dc:format>
        <dc:type
           rdf:resource="http://purl.org/dc/dcmitype/StillImage" />
        <dc:title></dc:title>
      </cc:Work>
    </rdf:RDF>
  </metadata>
  <g
     inkscape:label="Ebene 1"
     inkscape:groupmode="layer"
     id="layer1"
     transform="translate(-194.13499,-775.32797)">
    <ellipse
       style="fill:#000000"
       id="path3343"
       cx="269.7554"
       cy="970.38538"
       rx="2.4836617"
       ry="2.5152287" />
    <ellipse
       style="fill:#000000"
       id="path3385"
       cx="319.84583"
       cy="970.44849"
       rx="2.4836617"
       ry="2.4520943" />
    <circle
       style="fill:#000000"
       id="path3387"
       cx="344.82791"
       cy="970.32233"
       r="2.4520943" />
    <ellipse
       style="fill:#000000"
       id="path3389"
       cx="294.86932"
       cy="970.35376"
       rx="2.4836617"
       ry="2.420527" />
    <ellipse
       style="fill:#000000"
       id="path3414"
       cx="405.00299"
       cy="910.41638"
       rx="2.5783634"
       ry="2.4836617" />
    <ellipse
       style="fill:#ff6600"
       id="path3416"
       cx="369.95816"
       cy="970.5639"
       rx="2.5152287"
       ry="2.4520943" />
    <circle
       style="fill:#000000"
       id="path3418"
       cx="389.81528"
       cy="925.25195"
       r="2.5152287" />
    <circle
       style="fill:#000000"
       id="path3441"
       cx="394.92767"
       cy="970.41077"
       r="2.5" />
    <circle
       style="fill:#000000"
       id="path3486"
       cx="384.72589"
       cy="955.35999"
       r="2.5" />
    <circle
       style="fill:#000000"
       id="path3488"
       cx="470.01697"
       cy="970.41077"
       r="2.5" />
    <circle
       style="fill:#000000"
       id="path3490"
       cx="445.01694"
       cy="970.50006"
       r="2.5" />
    <circle
       style="fill:#000000"
       id="path3492"
       cx="420.01697"
       cy="970.42859"
       r="2.5" />
    <circle
       style="fill:#000000"
       id="path3494"
       cx="359.67358"
       cy="955.44928"
       r="2.5" />
    <circle
       style="fill:#000000"
       id="path3496"
       cx="374.92767"
       cy="940.41077"
       r="2.5" />
    <circle
       style="fill:#000000"
       id="path3498"
       cx="429.99194"
       cy="910.63599"
       r="2.5" />
    <circle
       style="fill:#000000"
       id="path3500"
       cx="399.83838"
       cy="940.41077"
       r="2.5" />
    <circle
       style="fill:#000000"
       id="path3502"
       cx="415.01541"
       cy="925.48627"
       r="2.5" />
    <circle
       style="fill:#000000"
       id="path3504"
       cx="244.83839"
       cy="970.41077"
       r="2.5" />
    <circle
       style="fill:#000000"
       id="path3506"
       cx="344.83838"
       cy="945.41077"
       r="2.5" />
    <circle
       style="fill:#000000"
       id="path3508"
       cx="344.83838"
       cy="920.41077"
       r="2.5" />
    <circle
       style="fill:#000000"
       id="path3510"
       cx="344.83838"
       cy="895.41077"
       r="2.5" />
    <circle
       style="fill:#000000"
       id="path3512"
       cx="344.83838"
       cy="870.41077"
       r="2.5" />
    <circle
       style="fill:#000000"
       id="path3514"
       cx="369.83838"
       cy="945.41077"
       r="2.5" />
    <circle
       style="fill:#000000"
       id="path3516"
       cx="369.83838"
       cy="920.41077"
       r="2.5" />
    <circle
       style="fill:#000000"
       id="path3518"
       cx="369.83838"
       cy="895.41077"
       r="2.5" />
    <circle
       style="fill:#000000"
       id="path3520"
       cx="369.83838"
       cy="870.41077"
       r="2.5" />
    <path
       style="fill:none;fill-rule:evenodd;stroke:#000000;stroke-width:1px;stroke-linecap:butt;stroke-linejoin:miter;stroke-opacity:1"
       d="m 344.33839,870.9108 0,25 0,25 0,25 0,25 15,-15 10,-10 5,-5 15,-15 15,-15 0,-25"
       id="path3522"
       inkscape:connector-curvature="0" />
    <circle
       style="fill:#000000"
       id="path3524"
       cx="404.83838"
       cy="885.41077"
       r="2.5" />
    <circle
       style="fill:#000000"
       id="path3526"
       cx="404.83838"
       cy="860.41077"
       r="2.5" />
    <circle
       style="fill:#000000"
       id="path3528"
       cx="404.83838"
       cy="835.41077"
       r="2.5" />
    <circle
       style="fill:#000000"
       id="path3530"
       cx="404.83838"
       cy="810.41077"
       r="2.5" />
    <path
       style="fill:none;fill-rule:evenodd;stroke:#000000;stroke-width:1px;stroke-linecap:butt;stroke-linejoin:miter;stroke-opacity:1"
       d="m 404.33839,885.9108 0,-25 0,-25 0,-25 -60,60"
       id="path3532"
       inkscape:connector-curvature="0" />
    <path
       style="opacity:0.88700005;fill:#0000ff"
       d="m 345.48177,967.9033 c -0.41147,-0.10753 -0.44194,-0.80197 -0.44194,-10.07223 0,-9.54553 0.0194,-9.95674 0.47064,-9.95674 0.62369,0 1.79464,-1.19272 1.83129,-1.86534 0.0855,-1.56891 -0.44925,-2.59684 -1.57114,-3.02031 l -0.73079,-0.27584 0,-9.91989 c 0,-9.50959 0.0195,-9.91989 0.47064,-9.91989 0.62369,0 1.79464,-1.19273 1.83129,-1.86534 0.0855,-1.56892 -0.44925,-2.59685 -1.57114,-3.02032 l -0.73079,-0.27584 0,-9.91989 c 0,-9.27702 0.0286,-9.92025 0.44194,-9.92551 1.23336,-0.0157 2.18155,-1.71335 1.78635,-3.19835 -0.21883,-0.82229 -1.26372,-1.84679 -1.88354,-1.84679 -0.28549,0 -0.34475,-1.71469 -0.34475,-9.97526 0,-9.32974 0.0286,-9.97562 0.44194,-9.98087 1.21779,-0.0155 2.18826,-1.72017 1.79391,-3.15111 -0.20493,-0.7436 0.31107,-1.27755 27.88227,-28.85248 15.45009,-15.45218 28.1765,-28.09487 28.2809,-28.09487 0.10441,0 0.18983,4.57517 0.18983,10.16705 0,9.83932 -0.016,10.17705 -0.49712,10.4775 -1.06548,0.6654 -1.07315,2.84407 -0.014,3.9715 0.49551,0.52744 0.51111,0.85194 0.51111,10.63168 0,9.76034 -0.0161,10.09771 -0.49712,10.3981 -1.06548,0.66539 -1.07315,2.84407 -0.014,3.97149 0.4955,0.52745 0.5111,0.85194 0.5111,10.63169 0,9.76034 -0.0161,10.09771 -0.49712,10.39809 -1.06548,0.6654 -1.07314,2.84407 -0.014,3.9715 0.49544,0.52737 0.5111,0.85209 0.5111,10.59284 l 0,10.04879 -0.65838,0.78245 c -0.5439,0.64639 -0.63765,0.9664 -0.53914,1.84036 l 0.11925,1.05793 -5.59797,5.59382 -5.59797,5.59382 -1.03625,-0.1657 c -1.94242,-0.31061 -3.33437,1.13025 -3.0159,3.12188 l 0.15225,0.95214 -5.55215,5.54786 -5.55216,5.54786 -1.28125,0 c -1.13783,0 -1.36697,0.0959 -2.04692,0.85692 -0.66455,0.74376 -0.74952,1.00015 -0.64343,1.94135 0.10476,0.92949 0.0277,1.17302 -0.53945,1.7045 -0.51261,0.48038 -0.84737,0.59115 -1.48595,0.49171 -1.84037,-0.28658 -3.26822,1.11791 -3.01975,2.97037 0.12278,0.9154 0.0508,1.01267 -3.00748,4.06264 l -3.13326,3.12479 -1.2544,-0.0861 c -1.12509,-0.0772 -1.33607,-0.004 -2.04656,0.70606 -0.7194,0.7194 -0.78131,0.90507 -0.67405,2.02138 l 0.11811,1.22921 -5.58186,5.57773 c -3.07002,3.06775 -5.63775,5.56454 -5.70606,5.54843 -0.0683,-0.0161 -0.32309,-0.0813 -0.56616,-0.14479 z m 25.7311,-45.32645 c 1.36363,-0.66733 1.55823,-2.82103 0.36289,-4.01637 -1.17371,-1.17371 -3.20468,-0.88539 -3.9527,0.56113 -1.26639,2.44891 1.06356,4.69151 3.58981,3.45524 z m 0,-25.00128 c 1.36363,-0.66732 1.55823,-2.82102 0.36289,-4.01636 -1.17371,-1.17371 -3.20468,-0.8854 -3.9527,0.56112 -1.26639,2.44892 1.06356,4.69152 3.58981,3.45524 z m 0.2807,-25.15311 c 1.19166,-0.77158 1.15193,-2.96339 -0.0731,-4.03451 -1.12412,-0.98285 -3.10864,-0.60078 -3.79738,0.73111 -1.32723,2.56656 1.40587,4.89921 3.87051,3.3034 z"
       id="path3534"
       inkscape:connector-curvature="0" />
    <circle
       style="opacity:1;fill:#000000"
       id="path4671"
       cx="359.92026"
       cy="855.44916"
       r="2.5" />
    <circle
       style="opacity:1;fill:#000000"
       id="path4673"
       cx="374.83838"
       cy="840.41077"
       r="2.5" />
    <circle
       style="opacity:1;fill:#000000"
       id="path4675"
       cx="389.83838"
       cy="825.41077"
       r="2.5" />
    <circle
       style="opacity:1;fill:#000000"
       id="path4677"
       cx="429.83838"
       cy="885.41077"
       r="2.5" />
    <circle
       style="opacity:1;fill:#000000"
       id="path4679"
       cx="429.83838"
       cy="860.41077"
       r="2.5" />
    <circle
       style="opacity:1;fill:#000000"
       id="path4681"
       cx="429.83838"
       cy="835.41077"
       r="2.5" />
    <circle
       style="opacity:1;fill:#000000"
       id="path4683"
       cx="429.83838"
       cy="810.41077"
       r="2.5" />
    <circle
       style="opacity:1;fill:#000000"
       id="path4685"
       cx="384.83838"
       cy="855.41077"
       r="2.5" />
    <circle
       style="opacity:1;fill:#000000"
       id="path4687"
       cx="399.83838"
       cy="840.41077"
       r="2.5" />
    <circle
       style="opacity:1;fill:#000000"
       id="path4689"
       cx="414.83838"
       cy="825.41077"
       r="2.5" />
    <path
       style="fill:none;fill-rule:evenodd;stroke:#000000;stroke-width:1px;stroke-linecap:butt;stroke-linejoin:miter;stroke-opacity:1"
       d="m 369.33839,970.9108 15,-15 15,-15 15,-15 15,-15 0,-25 0,-25 0,-25 0,-25 -15,15 -15,15 -15,15 -15,15 0,25 0,25 0,25 z"
       id="path4691"
       inkscape:connector-curvature="0" />
    <path
       style="opacity:1;fill:#aa0000"
       d="m 370.07391,932.84753 c 0,-9.88079 0.005,-9.97526 0.51655,-9.97526 0.28411,0 0.7955,-0.27894 1.13642,-0.61987 0.93427,-0.93426 0.8778,-2.69659 -0.11832,-3.6927 -0.406,-0.40601 -0.91739,-0.73819 -1.13642,-0.73819 -0.3559,0 -0.39823,-1.06046 -0.39823,-9.97526 0,-9.88079 0.005,-9.97526 0.51655,-9.97526 0.28411,0 0.7955,-0.27894 1.13642,-0.61986 0.93427,-0.93427 0.8778,-2.69659 -0.11832,-3.69271 -0.406,-0.40601 -0.91739,-0.73819 -1.13642,-0.73819 -0.3559,0 -0.39823,-1.06045 -0.39823,-9.97526 0,-9.88079 0.005,-9.97525 0.51655,-9.97525 0.28411,0 0.80567,-0.28912 1.15903,-0.64248 0.55997,-0.55996 0.63147,-0.8191 0.55674,-2.01769 l -0.0858,-1.3752 5.5366,-5.54136 5.5366,-5.54137 1.16516,0.138 c 1.00612,0.11916 1.27473,0.0458 1.96782,-0.5374 0.88302,-0.743 1.28699,-2.08106 0.85556,-2.83383 -0.2288,-0.39921 0.51982,-1.24967 5.45095,-6.1925 4.99233,-5.00418 5.77772,-5.69679 6.20225,-5.46959 0.78754,0.42148 2.1024,0.0248 2.84562,-0.85845 0.58548,-0.6958 0.6568,-0.95969 0.5357,-1.98217 -0.11974,-1.01105 -0.0557,-1.25843 0.44858,-1.73215 l 0.58826,-0.55265 0.18998,4.24803 c 0.10449,2.33642 0.11851,6.90963 0.0312,10.1627 -0.14325,5.33491 -0.206,5.96613 -0.64011,6.43972 -0.85066,0.92801 -0.88368,1.9181 -0.11051,3.31279 l 0.69455,1.25288 0.008,9.89178 c 0.008,9.76457 0.001,9.89934 -0.53267,10.48033 -0.90232,0.98174 -0.95673,1.95277 -0.18916,3.37629 l 0.67556,1.25288 0.12458,9.78035 0.12457,9.78035 -0.66551,0.87253 c -0.5091,0.66746 -0.66552,1.16249 -0.66552,2.1062 l 0,1.23365 -5.51714,5.46586 c -5.48765,5.43665 -5.52205,5.46506 -6.43555,5.31682 -1.11638,-0.18117 -2.27952,0.26147 -2.80848,1.06876 -0.22871,0.34906 -0.39112,1.15208 -0.39112,1.93384 l 0,1.33691 -5.36859,5.36424 -5.36859,5.36423 -1.18861,0 c -0.9694,0 -1.35326,0.14456 -2.08129,0.78377 -0.78519,0.68941 -0.89267,0.92736 -0.89267,1.97629 0,1.33252 -0.71984,2.2907 -1.72091,2.2907 l -0.55193,0 0,-9.97525 z"
       id="path4701"
       inkscape:connector-curvature="0" />
    <path
       style="opacity:1;fill:#aa0000"
       d="m 370.07391,957.97507 c 0,-9.68679 0.0193,-10.10153 0.47063,-10.10153 0.25886,0 0.77916,-0.30851 1.15624,-0.68559 0.6005,-0.60051 0.6753,-0.84867 0.60264,-1.99962 -0.0688,-1.08973 0.0156,-1.41894 0.49411,-1.92861 0.52103,-0.55492 0.67097,-0.58952 1.54437,-0.35639 0.8115,0.2166 1.10501,0.17805 1.82206,-0.23932 1.02357,-0.59578 1.52707,-1.84825 1.2006,-2.98657 -0.21384,-0.74561 -0.0766,-0.908 5.39947,-6.39069 l 5.61889,-5.62563 1.01015,0.141 c 0.75048,0.10475 1.21716,0.0119 1.81541,-0.36099 0.90939,-0.5669 1.44804,-1.98364 1.09618,-2.88314 -0.18895,-0.48304 0.47246,-1.23959 5.48295,-6.2717 5.23904,-5.26163 5.74403,-5.70135 6.2716,-5.46097 0.91312,0.41604 2.26801,0.0254 3.02275,-0.87158 0.55314,-0.65736 0.64962,-0.97418 0.5417,-1.77878 -0.15838,-1.18079 -0.70501,-1.83591 -1.84615,-2.21252 l -0.85334,-0.28163 0,-9.8294 c 0,-8.84193 0.0406,-9.8294 0.40406,-9.8294 0.22223,0 0.79044,-0.38639 1.26269,-0.85863 1.42988,-1.42988 1.00659,-3.39862 -0.90058,-4.18859 l -0.76617,-0.31736 0,-9.81835 c 0,-8.83179 0.0406,-9.81835 0.40406,-9.81835 0.22223,0 0.79044,-0.38638 1.26269,-0.85863 1.42988,-1.42988 1.00659,-3.39861 -0.90058,-4.18859 l -0.76617,-0.31736 0,-9.81835 c 0,-8.83179 0.0406,-9.81834 0.40406,-9.81834 0.22223,0 0.8058,-0.40174 1.29682,-0.89276 0.83578,-0.83579 0.88359,-0.97007 0.74927,-2.10425 l -0.14349,-1.2115 3.01796,-3.00965 3.01796,-3.00964 1.3303,0.083 c 1.15605,0.0721 1.4164,-0.003 1.98763,-0.57439 0.75152,-0.75152 0.99812,-1.67412 0.7131,-2.66793 -0.18457,-0.64356 0.16024,-1.04463 5.39656,-6.27707 3.07655,-3.07427 5.67803,-5.58958 5.78107,-5.58958 0.10304,0 0.18734,4.57517 0.18734,10.16705 0,9.7261 -0.0209,10.18008 -0.48129,10.46762 -0.26472,0.16532 -0.61666,0.71073 -0.7821,1.21202 -0.34059,1.03199 -0.0604,2.03487 0.78139,2.79666 0.45905,0.41543 0.482,0.91855 0.482,10.56411 0,9.68761 -0.0209,10.14098 -0.48129,10.42849 -0.26472,0.16531 -0.61666,0.71072 -0.7821,1.21202 -0.34059,1.03198 -0.0604,2.03486 0.78139,2.79666 0.45905,0.41543 0.482,0.91855 0.482,10.56411 0,9.68761 -0.0209,10.14097 -0.48129,10.42848 -0.26472,0.16532 -0.61666,0.71073 -0.7821,1.21202 -0.34059,1.03199 -0.0604,2.03487 0.78139,2.79666 0.45918,0.41555 0.482,0.91995 0.482,10.65154 l 0,10.21534 -0.64784,0.76991 c -0.49517,0.58849 -0.6312,1.00041 -0.57722,1.748 0.0697,0.96475 -0.006,1.05518 -5.57821,6.6311 -5.38047,5.38446 -5.68711,5.6468 -6.45475,5.52222 -0.92748,-0.1505 -2.25063,0.43558 -2.64439,1.17132 -0.14302,0.26722 -0.26003,0.97726 -0.26003,1.57785 0,1.08676 -0.027,1.11895 -5.61897,6.70445 -5.57922,5.57274 -5.6254,5.6114 -6.5269,5.4639 -1.04941,-0.1717 -2.33192,0.3791 -2.76442,1.18723 -0.15292,0.28574 -0.2468,1.02758 -0.20862,1.64852 l 0.0694,1.12898 -5.64694,5.65113 c -5.2863,5.29021 -5.68753,5.63569 -6.28246,5.4095 -0.8827,-0.3356 -1.90483,-0.0575 -2.69574,0.73339 -0.58482,0.58481 -0.65908,0.8382 -0.58663,2.00166 l 0.0829,1.3321 -5.55368,5.55846 c -3.95946,3.96285 -5.71742,5.55846 -6.12405,5.55846 l -0.57036,0 0,-10.10153 z"
       id="path4703"
       inkscape:connector-curvature="0" />
    <circle
       style="opacity:1;fill:#000000"
       id="path4705"
       cx="484.83838"
       cy="955.41077"
       r="2.5" />
    <circle
       style="opacity:1;fill:#000000"
       id="path4707"
       cx="499.83838"
       cy="940.41077"
       r="2.5" />
    <circle
       style="opacity:1;fill:#000000"
       id="path4709"
       cx="514.83838"
       cy="925.41077"
       r="2.5" />
    <circle
       style="opacity:1;fill:#000000"
       id="path4711"
       cx="529.83838"
       cy="910.41077"
       r="2.5" />
    <circle
       style="opacity:1;fill:#000000"
       id="path4713"
       cx="454.83838"
       cy="910.41077"
       r="2.5" />
    <circle
       style="opacity:1;fill:#000000"
       id="path4715"
       cx="479.83838"
       cy="910.41077"
       r="2.5" />
    <circle
       style="opacity:1;fill:#000000"
       id="path4717"
       cx="504.83838"
       cy="910.41077"
       r="2.5" />
    <circle
       style="opacity:1;fill:#000000"
       id="path4719"
       cx="529.83838"
       cy="885.41077"
       r="2.5" />
    <circle
       style="opacity:1;fill:#000000"
       id="path4721"
       cx="529.83838"
       cy="860.41077"
       r="2.5" />
    <circle
       style="opacity:1;fill:#000000"
       id="path4723"
       cx="529.83838"
       cy="835.41077"
       r="2.5" />
    <circle
       style="opacity:1;fill:#000000"
       id="path4725"
       cx="529.83838"
       cy="810.41077"
       r="2.5" />
    <circle
       style="opacity:1;fill:#000000"
       id="path4727"
       cx="454.83838"
       cy="810.41077"
       r="2.5" />
    <circle
       style="opacity:1;fill:#000000"
       id="path4729"
       cx="479.83838"
       cy="810.41077"
       r="2.5" />
    <circle
       style="opacity:1;fill:#000000"
       id="path4731"
       cx="504.83838"
       cy="810.41077"
       r="2.5" />
    <circle
       style="opacity:1;fill:#000000"
       id="path4733"
       cx="469.83838"
       cy="945.41077"
       r="2.5" />
    <circle
       style="opacity:1;fill:#000000"
       id="path4735"
       cx="469.83838"
       cy="920.32147"
       r="2.5" />
    <circle
       style="opacity:1;fill:#000000"
       id="path4737"
       cx="469.83838"
       cy="895.41077"
       r="2.5" />
    <circle
       style="opacity:1;fill:#000000"
       id="path4739"
       cx="469.83838"
       cy="870.41077"
       r="2.5" />
    <circle
       style="opacity:1;fill:#000000"
       id="path4741"
       cx="485.01694"
       cy="855.41077"
       r="2.5" />
    <circle
       style="opacity:1;fill:#000000"
       id="path4743"
       cx="499.83838"
       cy="840.41077"
       r="2.5" />
    <circle
       style="opacity:1;fill:#000000"
       id="path4745"
       cx="514.83838"
       cy="825.41077"
       r="2.5" />
    <circle
       style="opacity:1;fill:#000000"
       id="path4747"
       cx="394.83838"
       cy="870.41077"
       r="2.5" />
    <circle
       style="opacity:1;fill:#000000"
       id="path4749"
       cx="419.83838"
       cy="870.41077"
       r="2.5" />
    <circle
       style="opacity:1;fill:#000000"
       id="path4751"
       cx="444.83838"
       cy="870.41077"
       r="2.5" />
    <path
       style="fill:none;fill-rule:evenodd;stroke:#000000;stroke-width:1px;stroke-linecap:butt;stroke-linejoin:miter;stroke-opacity:1"
       d="m 369.33839,870.9108 25,0 25,0 25,0 25,0 0,25 0,25 0,25 0,25 -25,0 -25,0 -25,0 -25,0"
       id="path4753"
       inkscape:connector-curvature="0" />
    <path
       style="fill:none;fill-rule:evenodd;stroke:#000000;stroke-width:1px;stroke-linecap:butt;stroke-linejoin:miter;stroke-opacity:1"
       d="m 469.33839,970.9108 15,-15 15,-15 15,-15 15,-15 0,-25 0,-25 0,-25 0,-25 -15,15 -15,15 -15,15 -15,15"
       id="path4755"
       inkscape:connector-curvature="0" />
    <path
       style="fill:none;fill-rule:evenodd;stroke:#000000;stroke-width:1px;stroke-linecap:butt;stroke-linejoin:miter;stroke-opacity:1"
       d="m 429.33839,910.9108 25,0 25,0 25,0 25,0"
       id="path4757"
       inkscape:connector-curvature="0" />
    <path
       style="fill:none;fill-rule:evenodd;stroke:#000000;stroke-width:1px;stroke-linecap:butt;stroke-linejoin:miter;stroke-opacity:1"
       d="m 429.33839,810.9108 25,0 25,0 25,0 25,0"
       id="path4759"
       inkscape:connector-curvature="0" />
    <circle
       style="opacity:1;fill:#000000"
       id="path4761"
       cx="244.83839"
       cy="945.41077"
       r="2.5" />
    <circle
       style="opacity:1;fill:#000000"
       id="path4763"
       cx="244.83839"
       cy="920.41077"
       r="2.5" />
    <circle
       style="opacity:1;fill:#000000"
       id="path4765"
       cx="244.83839"
       cy="895.41077"
       r="2.5" />
    <circle
       style="opacity:1;fill:#000000"
       id="path4767"
       cx="244.83839"
       cy="870.41077"
       r="2.5" />
    <circle
       style="opacity:1;fill:#000000"
       id="path4769"
       cx="269.83838"
       cy="870.41077"
       r="2.5" />
    <circle
       style="opacity:1;fill:#000000"
       id="path4771"
       cx="294.83838"
       cy="870.41077"
       r="2.5" />
    <circle
       style="opacity:1;fill:#000000"
       id="path4773"
       cx="319.83838"
       cy="870.41077"
       r="2.5" />
    <circle
       style="opacity:1;fill:#000000"
       id="path4775"
       cx="259.83838"
       cy="955.41077"
       r="2.5" />
    <circle
       style="opacity:1;fill:#000000"
       id="path4777"
       cx="274.83838"
       cy="940.41077"
       r="2.5" />
    <circle
       style="opacity:1;fill:#000000"
       id="path4782"
       cx="289.83838"
       cy="925.41077"
       r="2.5" />
    <circle
       style="opacity:1;fill:#000000"
       id="path4784"
       cx="304.83838"
       cy="910.41077"
       r="2.5" />
    <circle
       style="opacity:1;fill:#000000"
       id="path4786"
       cx="329.83838"
       cy="910.41077"
       r="2.5" />
    <circle
       style="opacity:1;fill:#000000"
       id="path4792"
       cx="304.83838"
       cy="885.41077"
       r="2.5" />
    <circle
       style="opacity:1;fill:#000000"
       id="path4794"
       cx="304.83838"
       cy="860.41077"
       r="2.5" />
    <circle
       style="opacity:1;fill:#000000"
       id="path4796"
       cx="304.83838"
       cy="835.41077"
       r="2.5" />
    <circle
       style="opacity:1;fill:#000000"
       id="path4798"
       cx="304.83838"
       cy="810.41077"
       r="2.5" />
    <circle
       style="opacity:1;fill:#000000"
       id="path4800"
       cx="259.83838"
       cy="855.41077"
       r="2.5" />
    <circle
       style="opacity:1;fill:#000000"
       id="path4802"
       cx="274.83838"
       cy="840.41077"
       r="2.5" />
    <circle
       style="opacity:1;fill:#000000"
       id="path4804"
       cx="289.83838"
       cy="825.41077"
       r="2.5" />
    <circle
       style="opacity:1;fill:#000000"
       id="path4806"
       cx="329.83838"
       cy="810.41077"
       r="2.5" />
    <circle
       style="opacity:1;fill:#000000"
       id="path4808"
       cx="354.83838"
       cy="810.41077"
       r="2.5" />
    <circle
       style="opacity:1;fill:#000000"
       id="path4810"
       cx="379.83838"
       cy="810.41077"
       r="2.5" />
    <path
       style="fill:none;fill-rule:evenodd;stroke:#000000;stroke-width:1px;stroke-linecap:butt;stroke-linejoin:miter;stroke-opacity:1"
       d="m 344.33839,870.9108 -25,0 -25,0 -25,0 -25,0 0,25 0,25 0,25 0,25 25,0 25,0 25,0 25,0"
       id="path4812"
       inkscape:connector-curvature="0" />
    <path
       style="fill:none;fill-rule:evenodd;stroke:#000000;stroke-width:1px;stroke-linecap:butt;stroke-linejoin:miter;stroke-opacity:1"
       d="m 244.33839,970.9108 15,-15 15,-15 15,-15 15,-15 0,-25 0,-25 0,-25 0,-25 -15,15 -15,15 -15,15 -15,15"
       id="path4814"
       inkscape:connector-curvature="0" />
    <path
       style="fill:none;fill-rule:evenodd;stroke:#000000;stroke-width:1px;stroke-linecap:butt;stroke-linejoin:miter;stroke-opacity:1"
       d="m 304.33839,810.9108 25,0 25,0 25,0 25,0"
       id="path4816"
       inkscape:connector-curvature="0" />
    <path
       style="fill:none;fill-rule:evenodd;stroke:#000000;stroke-width:1px;stroke-linecap:butt;stroke-linejoin:miter;stroke-opacity:1"
       d="m 304.33839,910.9108 25,0 15,0"
       id="path4818"
       inkscape:connector-curvature="0" />
    <text
       xml:space="preserve"
       style="font-style:normal;font-weight:normal;font-size:40px;line-height:125%;font-family:sans-serif;letter-spacing:0px;word-spacing:0px;fill:#000000;fill-opacity:1;stroke:none;stroke-width:1px;stroke-linecap:butt;stroke-linejoin:miter;stroke-opacity:1"
       x="333.67813"
       y="797.89191"
       id="text4858"
       sodipodi:linespacing="125%"><tspan
         sodipodi:role="line"
         id="tspan4860"
         x="333.67813"
         y="797.89191"
         style="font-size:25px">FF</tspan></text>
    <text
       xml:space="preserve"
       style="font-style:normal;font-weight:normal;font-size:40px;line-height:125%;font-family:sans-serif;letter-spacing:0px;word-spacing:0px;fill:#000000;fill-opacity:1;stroke:none;stroke-width:1px;stroke-linecap:butt;stroke-linejoin:miter;stroke-opacity:1"
       x="458.67526"
       y="797.09637"
       id="text4862"
       sodipodi:linespacing="125%"><tspan
         sodipodi:role="line"
         id="tspan4864"
         x="458.67526"
         y="797.09637"
         style="font-size:25px">NF</tspan></text>
    <text
       xml:space="preserve"
       style="font-style:normal;font-weight:normal;font-size:40px;line-height:125%;font-family:sans-serif;letter-spacing:0px;word-spacing:0px;fill:#000000;fill-opacity:1;stroke:none;stroke-width:1px;stroke-linecap:butt;stroke-linejoin:miter;stroke-opacity:1"
       x="352.62009"
       y="982.33447"
       id="text4866"
       sodipodi:linespacing="125%"><tspan
         sodipodi:role="line"
         id="tspan4868"
         x="352.62009"
         y="982.33447"
         style="font-size:10px;fill:#ff6600">(i,j,k)</tspan></text>
    <circle
       style="opacity:1;fill:#000000"
       id="path5049"
       cx="369.77008"
       cy="995.53766"
       r="2.5" />
    <circle
       style="opacity:1;fill:#000000"
       id="path5071"
       cx="394.77008"
       cy="995.53766"
       r="2.5" />
    <circle
       style="opacity:1;fill:#000000"
       id="path5073"
       cx="419.77008"
       cy="995.53766"
       r="2.5" />
    <circle
       style="opacity:1;fill:#000000"
       id="path5075"
       cx="444.77008"
       cy="995.53766"
       r="2.5" />
    <circle
       style="opacity:1;fill:#000000"
       id="path5077"
       cx="469.77008"
       cy="995.53766"
       r="2.5" />
    <circle
       style="opacity:1;fill:#000000"
       id="path5079"
       cx="484.77008"
       cy="980.53766"
       r="2.5" />
    <circle
       style="opacity:1;fill:#000000"
       id="path5081"
       cx="499.77008"
       cy="965.53772"
       r="2.5" />
    <circle
       style="opacity:1;fill:#000000"
       id="path5083"
       cx="514.77008"
       cy="950.53772"
       r="2.5" />
    <circle
       style="opacity:1;fill:#000000"
       id="path5085"
       cx="529.77008"
       cy="935.53772"
       r="2.5" />
    <circle
       style="opacity:1;fill:#000000"
       id="path5089"
       cx="504.77008"
       cy="935.53772"
       r="2.5" />
    <circle
       style="opacity:1;fill:#000000"
       id="path5091"
       cx="479.77008"
       cy="935.66272"
       r="2.5" />
    <circle
       style="opacity:1;fill:#000000"
       id="path5093"
       cx="454.70758"
       cy="935.47522"
       r="2.5" />
    <circle
       style="opacity:1;fill:#000000"
       id="path5095"
       cx="429.77008"
       cy="935.47522"
       r="2.5" />
    <circle
       style="opacity:1;fill:#000000"
       id="path5097"
       cx="414.77008"
       cy="950.60022"
       r="2.5" />
    <circle
       style="opacity:1;fill:#000000"
       id="path5099"
       cx="399.83258"
       cy="965.66272"
       r="2.5" />
    <circle
       style="opacity:1;fill:#000000"
       id="path5101"
       cx="384.83258"
       cy="980.53766"
       r="2.5" />
    <path
       style="fill:none;fill-rule:evenodd;stroke:#000000;stroke-width:1px;stroke-linecap:butt;stroke-linejoin:miter;stroke-opacity:1"
       d="m 369.27009,996.0377 25,0 25,0 25,0 25,0 15,-15 15,-14.99997 15,-15 15,-15 -25,0 -25,0 -25,0 -25,0 -15,15 -15,15 -15,14.99997 z"
       id="path5103"
       inkscape:connector-curvature="0" />
    <path
       style="opacity:0.8;fill:#008000"
       d="m 372.27995,994.75334 c -0.14827,-0.59073 0.35949,-1.17508 5.43118,-6.25053 l 5.59473,-5.59888 1.18269,0.15689 c 1.11733,0.14822 1.23317,0.10642 2.09581,-0.75622 0.85566,-0.85566 0.90431,-0.98742 0.77323,-2.09387 l -0.13989,-1.18075 3.12847,-3.14884 3.12846,-3.14885 1.18918,0.11426 c 1.05666,0.10153 1.2879,0.0276 2.07517,-0.66365 l 0.886,-0.77792 9.91649,0 9.91649,0 0.55051,0.62941 c 1.07453,1.22853 3.26959,1.2225 4.07796,-0.0112 l 0.40505,-0.61818 9.98739,0 9.98738,0 0.62393,0.7415 c 1.09855,1.30555 3.33725,1.17212 4.09518,-0.24408 0.25891,-0.48379 0.53936,-0.49742 10.23818,-0.49742 l 9.97197,0 0.75,0.75 c 1.37031,1.37032 3.70965,0.87882 4.29769,-0.90294 0.19514,-0.5913 0.20704,-1.08413 0.0379,-1.56935 -0.23908,-0.68584 -0.0765,-0.87732 5.34117,-6.29098 l 5.58775,-5.58362 1.22856,0.0652 c 1.00411,0.0533 1.36026,-0.0481 1.94948,-0.55493 0.63372,-0.54512 0.72126,-0.78916 0.7237,-2.01745 l 0.003,-1.39731 5.5574,-5.56181 5.5574,-5.56182 1.21339,0.084 c 1.00548,0.0696 1.33785,-0.0231 1.93983,-0.54088 0.63904,-0.5497 0.72677,-0.79216 0.72922,-2.01536 0.004,-1.84172 0.42603,-2.27125 2.23691,-2.27498 1.13262,-0.002 1.46906,-0.11452 2.07004,-0.69029 l 0.71762,-0.6875 10.04882,0 c 5.52685,0 10.04882,0.0853 10.04882,0.18959 0,0.10427 -2.50543,2.69316 -5.56762,5.75308 l -5.56762,5.5635 -1.17448,-0.16098 c -1.11076,-0.15225 -1.22421,-0.11125 -2.09116,0.7557 -0.86277,0.86277 -0.90834,0.98712 -0.77483,2.1144 l 0.14185,1.19772 -5.55069,5.54658 -5.55069,5.54658 -1.17448,-0.16098 c -1.11076,-0.15225 -1.22421,-0.11125 -2.09116,0.7557 -0.86277,0.86277 -0.90834,0.98712 -0.77483,2.1144 l 0.14185,1.19772 -5.55069,5.54658 -5.55069,5.54658 -1.17448,-0.16098 c -1.11076,-0.15225 -1.22421,-0.11125 -2.09116,0.7557 -0.86277,0.86277 -0.90834,0.98712 -0.77483,2.1144 l 0.14185,1.19772 -5.55069,5.54658 -5.55069,5.54658 -1.17448,-0.16098 c -1.10456,-0.1514 -1.22704,-0.10842 -2.05738,0.72192 -0.48559,0.48559 -0.8829,1.06289 -0.8829,1.28289 0,0.35992 -0.98918,0.4 -9.87023,0.4 l -9.87024,0 -0.15092,-0.60129 c -0.2299,-0.91603 -1.19644,-1.67453 -2.32705,-1.82618 -0.91607,-0.12287 -1.10559,-0.0485 -1.89958,0.74549 -0.48508,0.48509 -0.88198,1.06198 -0.88198,1.28198 0,0.35992 -0.98918,0.4 -9.87023,0.4 l -9.87024,0 -0.15092,-0.60129 c -0.2299,-0.91603 -1.19644,-1.67453 -2.32705,-1.82618 -0.91607,-0.12287 -1.10559,-0.0485 -1.89958,0.74549 -0.48508,0.48509 -0.88198,1.06198 -0.88198,1.28198 0,0.35992 -0.98918,0.4 -9.87023,0.4 l -9.87024,0 -0.15092,-0.60129 c -0.2299,-0.91603 -1.19644,-1.67453 -2.32705,-1.82618 -0.91607,-0.12287 -1.10559,-0.0485 -1.89958,0.74549 -0.48509,0.48509 -0.88198,1.06198 -0.88198,1.28198 0,0.35992 -0.98918,0.4 -9.87023,0.4 l -9.87024,0 -0.16355,-0.65164 z"
       id="path5105"
       inkscape:connector-curvature="0" />
    <path
       style="opacity:0.8;fill:#008000"
       d="m 397.35815,969.71748 c -0.22595,-1.15822 0.55714,-1.75066 2.14221,-1.62067 1.06383,0.0872 1.43548,0.007 1.98682,-0.42809 0.7768,-0.61324 1.14237,-2.01065 0.7508,-2.87003 -0.23788,-0.52211 0.19444,-1.02087 5.34665,-6.16837 l 5.60545,-5.60034 1.2042,0.0823 c 1.00622,0.0688 1.33315,-0.0262 1.98845,-0.57757 0.86417,-0.72715 1.25448,-2.03287 0.83948,-2.80831 -0.2249,-0.42023 0.46383,-1.20206 5.43572,-6.17042 5.67296,-5.66894 5.69641,-5.68862 6.57928,-5.52299 0.96292,0.18064 2.36087,-0.36331 2.61137,-1.01611 0.11811,-0.30779 1.65879,-0.36128 10.29964,-0.35761 l 10.16075,0.004 0.57153,0.6028 c 0.31435,0.33154 0.89332,0.67348 1.28661,0.75986 0.83569,0.18355 2.4524,-0.41241 2.67213,-0.98501 0.12784,-0.33315 0.9527,-0.38629 5.99648,-0.38629 l 5.84825,0 0,3.11364 c 0,2.97415 -0.0275,3.14118 -0.61483,3.72847 -1.13635,1.13635 -1.13635,2.67944 0,3.81579 l 0.61483,0.61483 0,10.01505 0,10.01505 -0.625,0.74277 c -0.34375,0.40852 -0.625,0.95913 -0.625,1.22359 0,0.4663 -0.29791,0.48081 -9.87023,0.48081 l -9.87024,0 -0.15705,-0.62573 c -0.22007,-0.87683 -1.48881,-1.87427 -2.38407,-1.87427 -1.15627,0 -2.14728,0.6428 -2.50158,1.62261 l -0.31727,0.87739 -9.80032,0 -9.80032,0 -0.25017,-0.71763 c -0.4053,-1.16264 -1.2527,-1.78237 -2.43717,-1.78237 -1.26713,0 -2.25516,0.69639 -2.48725,1.75305 l -0.16405,0.74695 -9.951,0 -9.95099,0 -0.13411,-0.6875 z"
       id="path5107"
       inkscape:connector-curvature="0" />
    <path
       style="opacity:0.8;fill:#008000"
       d="m 470.62147,967.9627 -0.6875,-0.0909 0,-9.98339 c 0,-9.72128 0.0128,-9.9834 0.48606,-9.9834 0.26733,0 0.80171,-0.2715 1.1875,-0.60335 0.60044,-0.51648 0.70144,-0.78958 0.70144,-1.89665 0,-1.10706 -0.101,-1.38017 -0.70144,-1.89664 -0.38579,-0.33185 -0.92017,-0.60336 -1.1875,-0.60336 -0.45549,0 -0.48606,-0.19654 -0.48606,-3.125 l 0,-3.125 3.60577,0 3.60577,0 0.75,0.75 c 0.61946,0.61947 0.95345,0.75 1.91893,0.75 0.97645,0 1.28429,-0.12349 1.86953,-0.75 l 0.70061,-0.75 10.0247,0 c 5.51358,0 10.02469,0.0951 10.02469,0.21126 0,0.11619 -0.23694,0.42556 -0.52653,0.6875 -0.41169,0.37237 -0.81825,0.45773 -1.86398,0.39136 -1.15617,-0.0734 -1.42227,-6e-5 -1.9633,0.54097 -0.77862,0.77862 -1.05102,1.79911 -0.71668,2.68489 0.24635,0.65266 0.0483,0.88516 -5.33938,6.26841 l -5.59522,5.59061 -1.36143,-0.0849 c -1.18148,-0.0737 -1.44416,-0.002 -1.98729,0.54097 -0.77862,0.77862 -1.05103,1.79911 -0.71669,2.68486 0.24653,0.65315 0.0505,0.88119 -5.39934,6.28023 -4.98108,4.93467 -5.7371,5.59163 -6.34266,5.51154 z"
       id="path5109"
       inkscape:connector-curvature="0" />
    <circle
       style="opacity:1;fill:#ff6600"
       id="path5113"
       cx="369.89508"
       cy="970.53766"
       r="2.5" />
    <path
       style="fill:none;fill-rule:evenodd;stroke:#000000;stroke-width:1px;stroke-linecap:butt;stroke-linejoin:miter;stroke-opacity:1"
       d="m 207.27009,1003.0377 25,0"
       id="path5115"
       inkscape:connector-curvature="0" />
    <path
       style="fill:none;fill-rule:evenodd;stroke:#000000;stroke-width:1px;stroke-linecap:butt;stroke-linejoin:miter;stroke-opacity:1"
       d="m 227.27009,1001.0377 5,2"
       id="path5117"
       inkscape:connector-curvature="0" />
    <path
       style="fill:none;fill-rule:evenodd;stroke:#000000;stroke-width:1px;stroke-linecap:butt;stroke-linejoin:miter;stroke-opacity:1"
       d="m 227.27009,1005.0377 5,-2"
       id="path5119"
       inkscape:connector-curvature="0" />
    <path
       style="fill:none;fill-rule:evenodd;stroke:#000000;stroke-width:1px;stroke-linecap:butt;stroke-linejoin:miter;stroke-opacity:1"
       d="m 207.27009,1003.0377 0,-25"
       id="path5121"
       inkscape:connector-curvature="0" />
    <path
       style="fill:none;fill-rule:evenodd;stroke:#000000;stroke-width:1px;stroke-linecap:butt;stroke-linejoin:miter;stroke-opacity:1"
       d="m 205.27009,983.0377 2,-5 0,0"
       id="path5123"
       inkscape:connector-curvature="0" />
    <path
       style="fill:none;fill-rule:evenodd;stroke:#000000;stroke-width:1px;stroke-linecap:butt;stroke-linejoin:miter;stroke-opacity:1"
       d="m 209.27009,983.0377 -2,-5"
       id="path5125"
       inkscape:connector-curvature="0" />
    <path
       style="fill:none;fill-rule:evenodd;stroke:#000000;stroke-width:1px;stroke-linecap:butt;stroke-linejoin:miter;stroke-opacity:1"
       d="m 207.27009,1003.0377 15,-15"
       id="path5127"
       inkscape:connector-curvature="0" />
    <path
       style="fill:none;fill-rule:evenodd;stroke:#000000;stroke-width:1px;stroke-linecap:butt;stroke-linejoin:miter;stroke-opacity:1"
       d="m 219.27009,989.0377 3,-1"
       id="path5131"
       inkscape:connector-curvature="0" />
    <path
       style="fill:none;fill-rule:evenodd;stroke:#000000;stroke-width:1px;stroke-linecap:butt;stroke-linejoin:miter;stroke-opacity:1"
       d="m 221.11947,991.0833 1.41184,-2.8296"
       id="path5157"
       inkscape:connector-curvature="0" />
    <text
       xml:space="preserve"
       style="font-style:normal;font-weight:normal;font-size:10px;line-height:125%;font-family:sans-serif;letter-spacing:0px;word-spacing:0px;fill:#000000;fill-opacity:1;stroke:none;stroke-width:1px;stroke-linecap:butt;stroke-linejoin:miter;stroke-opacity:1"
       x="232.6451"
       y="1012.7877"
       id="text5159"
       sodipodi:linespacing="125%"><tspan
         sodipodi:role="line"
         id="tspan5161"
         x="232.6451"
         y="1012.7877">i</tspan></text>
    <text
       xml:space="preserve"
       style="font-style:normal;font-weight:normal;font-size:10px;line-height:125%;font-family:sans-serif;letter-spacing:0px;word-spacing:0px;fill:#000000;fill-opacity:1;stroke:none;stroke-width:1px;stroke-linecap:butt;stroke-linejoin:miter;stroke-opacity:1"
       x="224.9576"
       y="990.97516"
       id="text5163"
       sodipodi:linespacing="125%"><tspan
         sodipodi:role="line"
         id="tspan5165"
         x="224.9576"
         y="990.97516">j</tspan></text>
    <text
       xml:space="preserve"
       style="font-style:normal;font-weight:normal;font-size:10px;line-height:125%;font-family:sans-serif;letter-spacing:0px;word-spacing:0px;fill:#000000;fill-opacity:1;stroke:none;stroke-width:1px;stroke-linecap:butt;stroke-linejoin:miter;stroke-opacity:1"
       x="196.7701"
       y="983.16266"
       id="text5167"
       sodipodi:linespacing="125%"><tspan
         sodipodi:role="line"
         id="tspan5169"
         x="196.7701"
         y="983.16266">k</tspan></text>
    <text
       xml:space="preserve"
       style="font-style:normal;font-weight:normal;font-size:10px;line-height:125%;font-family:sans-serif;letter-spacing:0px;word-spacing:0px;fill:#000000;fill-opacity:1;stroke:none;stroke-width:1px;stroke-linecap:butt;stroke-linejoin:miter;stroke-opacity:1"
       x="491.40396"
       y="888.02515"
       id="text5171"
       sodipodi:linespacing="125%"><tspan
         sodipodi:role="line"
         id="tspan5173"
         x="491.40396"
         y="888.02515">1</tspan></text>
    <text
       xml:space="preserve"
       style="font-style:normal;font-weight:normal;font-size:40px;line-height:125%;font-family:sans-serif;letter-spacing:0px;word-spacing:0px;fill:#000000;fill-opacity:1;stroke:none;stroke-width:1px;stroke-linecap:butt;stroke-linejoin:miter;stroke-opacity:1"
       x="416.02008"
       y="908.78772"
       id="text5207"
       sodipodi:linespacing="125%"><tspan
         sodipodi:role="line"
         id="tspan5209"
         x="416.02008"
         y="908.78772"
         style="font-size:10px">4</tspan></text>
    <text
       xml:space="preserve"
       style="font-style:normal;font-weight:normal;font-size:40px;line-height:125%;font-family:sans-serif;letter-spacing:0px;word-spacing:0px;fill:#000000;fill-opacity:1;stroke:none;stroke-width:1px;stroke-linecap:butt;stroke-linejoin:miter;stroke-opacity:1"
       x="348.77008"
       y="939.28772"
       id="text5232"
       sodipodi:linespacing="125%"><tspan
         sodipodi:role="line"
         id="tspan5234"
         x="348.77008"
         y="939.28772"
         style="font-size:10px">2,3</tspan></text>
    <text
       xml:space="preserve"
       style="font-style:normal;font-weight:normal;font-size:40px;line-height:125%;font-family:sans-serif;letter-spacing:0px;word-spacing:0px;fill:#000000;fill-opacity:1;stroke:none;stroke-width:1px;stroke-linecap:butt;stroke-linejoin:miter;stroke-opacity:1"
       x="452.02008"
       y="989.78766"
       id="text5236"
       sodipodi:linespacing="125%"><tspan
         sodipodi:role="line"
         id="tspan5238"
         x="452.02008"
         y="989.78766"
         style="font-size:10px">2,3</tspan></text>
    <text
       xml:space="preserve"
       style="font-style:normal;font-weight:normal;font-size:40px;line-height:125%;font-family:sans-serif;letter-spacing:0px;word-spacing:0px;fill:#000000;fill-opacity:1;stroke:none;stroke-width:1px;stroke-linecap:butt;stroke-linejoin:miter;stroke-opacity:1"
       x="316.33075"
       y="887.86096"
       id="text5240"
       sodipodi:linespacing="125%"><tspan
         sodipodi:role="line"
         id="tspan5242"
         x="316.33075"
         y="887.86096"
         style="font-size:10px">1</tspan></text>
    <circle
       style="opacity:1;fill:#000000;fill-opacity:1"
       id="path5263"
       cx="369.6817"
       cy="1020.5516"
       r="2.5" />
    <circle
       style="opacity:1;fill:#000000;fill-opacity:1"
       id="path5265"
       cx="469.6817"
       cy="1020.5516"
       r="2.5" />
    <circle
       style="opacity:1;fill:#000000;fill-opacity:1"
       id="path5269"
       cx="529.6817"
       cy="960.55157"
       r="2.5" />
    <path
       style="fill:none;fill-rule:evenodd;stroke:#000000;stroke-width:1px;stroke-linecap:butt;stroke-linejoin:miter;stroke-opacity:1"
       d="m 369.68171,996.05159 0,25.00001"
       id="path5275"
       inkscape:connector-curvature="0" />
    <path
       style="fill:none;fill-rule:evenodd;stroke:#000000;stroke-width:1px;stroke-linecap:butt;stroke-linejoin:miter;stroke-opacity:1"
       d="m 469.74421,996.11409 0,25.00001 0,0"
       id="path5277"
       inkscape:connector-curvature="0" />
    <path
       style="fill:none;fill-rule:evenodd;stroke:#000000;stroke-width:1px;stroke-linecap:butt;stroke-linejoin:miter;stroke-opacity:1"
       d="m 529.93171,935.80159 0,25"
       id="path5279"
       inkscape:connector-curvature="0" />
    <text
       xml:space="preserve"
       style="font-style:normal;font-weight:normal;font-size:25px;line-height:125%;font-family:sans-serif;letter-spacing:0px;word-spacing:0px;fill:#000000;fill-opacity:1;stroke:none;stroke-width:1px;stroke-linecap:butt;stroke-linejoin:miter;stroke-opacity:1"
       x="495.76392"
       y="1008.2562"
       id="text5300"
       sodipodi:linespacing="125%"><tspan
         sodipodi:role="line"
         id="tspan5302"
         x="495.76392"
         y="1008.2562">NF</tspan></text>
  </g>
</svg>
